<svg width="200" height="800" viewBox="0 0 200 800" xmlns="http://www.w3.org/2000/svg">
  <rect width="200" height="800" fill="#000000"/>
  
  <g fill="#0078BF">
    <rect x="60" y="750" width="80" height="10"/>
    
    <rect x="65" y="600" width="70" height="150"/>
    <rect x="72" y="350" width="56" height="250"/>
    <rect x="78" y="280" width="44" height="70"/>
    
    <path d="M78 280 Q78 240 100 240 T122 280 Z" />
    <path d="M82 255 Q82 225 100 225 T118 255 Z" opacity="0.9"/>
    <path d="M86 235 Q86 210 100 210 T114 235 Z" opacity="0.8"/>
    <path d="M90 220 Q90 195 100 195 T110 220 Z" opacity="0.7"/>
    <path d="M93 205 Q93 185 100 185 T107 205 Z" opacity="0.6"/>
    
    <rect x="99" y="60" width="2" height="130"/>
    
    <rect x="97" y="180" width="6" height="10"/>
  </g>
</svg>
