<svg width="200" height="800" viewBox="0 0 200 800" xmlns="http://www.w3.org/2000/svg">
  <rect width="200" height="800" fill="#000000"/>
  
  <g fill="#0078BF">
    <path d="M75 750 L125 750 L120 735 L80 735 Z" />
    
    <path d="M92 735 L96 350 L104 350 L108 735 Z" />
    
    <path d="M80 350 L120 350 L125 330 L115 310 L85 310 L75 330 Z" />
    
    <rect x="97" y="260" width="6" height="50" />
    
    <path d="M90 260 L110 260 L113 250 L108 240 L92 240 L87 250 Z" />
    
    <rect x="99" y="60" width="2" height="180" />
    <rect x="98" y="140" width="4" height="3" />
    <rect x="98" y="190" width="4" height="3" />
  </g>
</svg>
