<svg width="200" height="800" viewBox="0 0 200 800" xmlns="http://www.w3.org/2000/svg">
  <rect width="200" height="800" fill="#000000"/>
  
  <g fill="#0078BF">
    <path d="M60 760 L70 750 L130 750 L140 760 Z"/>
    
    <path d="M100 120 L85 180 L100 240 Z" fill="#006096"/>
    <path d="M100 120 L115 180 L100 240 Z" fill="#006096"/>
    <path d="M85 180 L100 240 L85 300 Z" fill="#005A8F"/>
    <path d="M115 180 L100 240 L115 300 Z" fill="#005A8F"/>
    <path d="M100 240 L85 300 L100 360 L115 300 Z" fill="#006096"/>
    <path d="M85 300 L100 360 L85 420 Z" fill="#005A8F"/>
    <path d="M115 300 L100 360 L115 420 Z" fill="#005A8F"/>
    <path d="M100 360 L85 420 L100 480 L115 420 Z" fill="#006096"/>
    <path d="M85 420 L100 480 L85 540 Z" fill="#005A8F"/>
    <path d="M115 420 L100 480 L115 540 Z" fill="#005A8F"/>
    <path d="M100 480 L85 540 L100 600 L115 540 Z" fill="#006096"/>
    <path d="M85 540 L100 600 L85 660 Z" fill="#005A8F"/>
    <path d="M115 540 L100 600 L115 660 Z" fill="#005A8F"/>
    <path d="M100 600 L85 660 L100 720 L115 660 Z" fill="#006096"/>
    
    <path d="M75 750 L85 550 L80 350 L85 180 L100 120 L115 180 L120 350 L115 550 L125 750 Z"/>
             
    <rect x="99" y="10" width="2" height="110" />
    <path d="M98 100 L102 100 L100 80 Z" opacity="0.9"/>
    <rect x="98.5" y="80" width="3" height="1.5"/>
    <rect x="98.5" y="60" width="3" height="1.5"/>
    <rect x="98.5" y="40" width="3" height="1.5"/>
    <rect x="98.5" y="20" width="3" height="1.5"/>
  </g>
</svg>
