<svg width="200" height="800" viewBox="0 0 200 800" xmlns="http://www.w3.org/2000/svg">
  <rect width="200" height="800" fill="#000000"/>
  
  <g fill="#0078BF">
    <rect x="65" y="750" width="70" height="10"/>
    
    <path d="M70 750 L75 300 L85 280 L115 300 L125 750 Z" />
    
    <path d="M75 300 L85 280 L90 260 L110 280 L115 300 Z" opacity="0.9" fill="#006096"/>
    
    <path d="M85 280 L90 260 L110 280 Z" opacity="0.8" fill="#005A8F"/>
    
    <rect x="94" y="240" width="12" height="40" opacity="0.8"/>
    <rect x="92" y="200" width="16" height="40"/>
    
    <rect x="98.5" y="80" width="3" height="140"/>
    
    <rect x="97.5" y="160" width="5" height="1.5"/>
    <rect x="97.5" y="130" width="5" height="1.5"/>
    <rect x="97.5" y="100" width="5" height="1.5"/>
    
    <rect x="99.5" y="40" width="1" height="40"/>
  </g>
</svg>
