<svg width="200" height="800" viewBox="0 0 200 800" xmlns="http://www.w3.org/2000/svg">
  <rect width="200" height="800" fill="#000000"/>
  
  <g fill="#0078BF">
    <g>
      <rect x="50" y="300" width="35" height="450"/>
      <rect x="53" y="250" width="29" height="50"/>
      <rect x="56" y="210" width="23" height="40"/>
      <rect x="59" y="180" width="17" height="30"/>
      <rect x="66" y="100" width="3" height="80"/>
      <circle cx="67.5" cy="100" r="2.5"/>
    </g>

    <g>
      <rect x="115" y="300" width="35" height="450"/>
      <rect x="118" y="250" width="29" height="50"/>
      <rect x="121" y="210" width="23" height="40"/>
      <rect x="124" y="180" width="17" height="30"/>
      <rect x="131" y="100" width="3" height="80"/>
      <circle cx="132.5" cy="100" r="2.5"/>
    </g>

    <rect x="85" y="420" width="30" height="12"/>
    <path d="M85 432 L100 450 L115 432 Z" opacity="0.8"/> <rect x="40" y="750" width="120" height="10"/>
  </g>
</svg>
