<svg width="200" height="800" viewBox="0 0 200 800" xmlns="http://www.w3.org/2000/svg">
  <rect width="200" height="800" fill="#000000"/>
  
  <g fill="#0078BF">
    <rect x="60" y="750" width="80" height="10"/>
    
    <path d="M75 750 
             L70 500 
             L80 250 
             L100 220 
             L120 250 
             L130 500 
             L125 750 
             Z" />
    
    <path d="M100 220 L85 450 L100 750 L115 450 Z" fill="#006096" opacity="0.8"/>
    <path d="M70 500 L100 450 L130 500 Z" fill="#005A8F" opacity="0.7"/>
    
    <path d="M80 250 L100 180 L120 250 L100 220 Z" opacity="0.9"/>
    
    <rect x="98" y="150" width="4" height="30"/>
    <path d="M95 180 L105 180 L100 160 Z" opacity="0.8"/>
    
    <rect x="99.2" y="30" width="1.6" height="120"/>
    
    <rect x="98.5" y="120" width="3" height="1.5"/>
    <rect x="98.5" y="90" width="3" height="1.5"/>
    <rect x="98.5" y="60" width="3" height="1.5"/>
  </g>
</svg>
